<svg width="200" height="200" viewBox="0 0 200 200" xmlns="http://www.w3.org/2000/svg">
  <circle cx="100" cy="100" r="95" fill="#007ACC"/>

  <circle cx="100" cy="100" r="85" fill="#FFFFFF"/>

  <rect x="55" y="60" width="90" height="100" rx="15" ry="15" fill="#EAEAEA"/>

  <path d="M60 60 L60 45 C60 35 70 35 80 45 L80 60 Z" fill="#EAEAEA"/>
  <path d="M140 60 L140 45 C140 35 130 35 120 45 L120 60 Z" fill="#EAEAEA"/>

  <path d="M100 80 C80 80 75 100 75 120 C75 140 90 155 100 155 C110 155 125 140 125 120 C125 100 120 80 100 80 Z" fill="#000000"/>

  <path d="M100 90 C90 90 85 110 85 125 C85 135 95 140 100 140 C105 140 115 135 115 125 C115 110 110 90 100 90 Z" fill="#FFFFFF"/>

  <polygon points="100,105 105,115 95,115" fill="#30A800"/>

  <circle cx="90" cy="100" r="3" fill="#FFFFFF"/>
  <circle cx="110" cy="100" r="3" fill="#FFFFFF"/>

  <text x="100" y="185" font-family="Arial, sans-serif" font-size="20" font-weight="bold" fill="#000000" text-anchor="middle">KLIA</text>

  <text x="100" y="195" font-family="Arial, sans-serif" font-size="10" fill="#007ACC" text-anchor="middle">STORE</text>
</svg>
